<svg xmlns="http://www.w3.org/2000/svg" xmlns:xlink="http://www.w3.org/1999/xlink" width="42" height="42" preserveAspectRatio="xMidYMid meet" viewBox="0 0 42 42" style="-ms-transform: rotate(360deg); -webkit-transform: rotate(360deg); transform: rotate(360deg);"><path fill-rule="evenodd" d="M21.002 26.588l10.357 10.604c1.039 1.072 1.715 1.083 2.773 0l2.078-2.128c1.018-1.042 1.087-1.726 0-2.839L25.245 21L36.211 9.775c1.027-1.055 1.047-1.767 0-2.84l-2.078-2.127c-1.078-1.104-1.744-1.053-2.773 0L21.002 15.412L10.645 4.809c-1.029-1.053-1.695-1.104-2.773 0L5.794 6.936c-1.048 1.073-1.029 1.785 0 2.84L16.759 21L5.794 32.225c-1.087 1.113-1.029 1.797 0 2.839l2.077 2.128c1.049 1.083 1.725 1.072 2.773 0l10.358-10.604z" fill="#ffffff"/><rect x="0" y="0" width="42" height="42" fill="rgba(0, 0, 0, 0)" /></svg>