<svg xmlns="http://www.w3.org/2000/svg" xmlns:xlink="http://www.w3.org/1999/xlink" width="1024" height="1024" preserveAspectRatio="xMidYMid meet" viewBox="0 0 1024 1024" style="-ms-transform: rotate(360deg); -webkit-transform: rotate(360deg); transform: rotate(360deg);"><path d="M992 1024H32q-13 0-22.5-9.5T0 992t9.5-22.5T32 960h960q13 0 22.5 9.5t9.5 22.5t-9.5 22.5t-22.5 9.5zm-64-128h-64q-13 0-22.5-9.5T832 864v-64q0-13 9.5-22.5T864 768h64q13 0 22.5 9.5T960 800v64q0 13-9.5 22.5T928 896zm0-192h-64q-13 0-22.5-9.5T832 672v-64q0-13 9.5-22.5T864 576h64q13 0 22.5 9.5T960 608v64q0 13-9.5 22.5T928 704zm0-192h-64q-13 0-22.5-9.5T832 480v-64q0-13 9.5-22.5T864 384h64q13 0 22.5 9.5T960 416v64q0 13-9.5 22.5T928 512zM736 896h-64q-13 0-22.5-9.5T640 864v-64q0-13 9.5-22.5T672 768h64q13 0 22.5 9.5T768 800v64q0 13-9.5 22.5T736 896zm0-192h-64q-13 0-22.5-9.5T640 672v-64q0-13 9.5-22.5T672 576h64q13 0 22.5 9.5T768 608v64q0 13-9.5 22.5T736 704zm0-192h-64q-13 0-22.5-9.5T640 480v-64q0-13 9.5-22.5T672 384h64q13 0 22.5 9.5T768 416v64q0 13-9.5 22.5T736 512zm0-192h-64q-13 0-22.5-9.5T640 288v-64q0-13 9.5-22.5T672 192h64q13 0 22.5 9.5T768 224v64q0 13-9.5 22.5T736 320zm0-192h-64q-13 0-22.5-9.5T640 96V32q0-13 9.5-22.5T672 0h64q13 0 22.5 9.5T768 32v64q0 13-9.5 22.5T736 128zM544 896h-64q-13 0-22.5-9.5T448 864v-64q0-13 9.5-22.5T480 768h64q13 0 22.5 9.5T576 800v64q0 13-9.5 22.5T544 896zm0-192h-64q-13 0-22.5-9.5T448 672v-64q0-13 9.5-22.5T480 576h64q13 0 22.5 9.5T576 608v64q0 13-9.5 22.5T544 704zm0-192h-64q-13 0-22.5-9.5T448 480v-64q0-13 9.5-22.5T480 384h64q13 0 22.5 9.5T576 416v64q0 13-9.5 22.5T544 512zm0-192h-64q-13 0-22.5-9.5T448 288v-64q0-13 9.5-22.5T480 192h64q13 0 22.5 9.5T576 224v64q0 13-9.5 22.5T544 320zM352 896h-64q-13 0-22.5-9.5T256 864v-64q0-13 9.5-22.5T288 768h64q13 0 22.5 9.5T384 800v64q0 13-9.5 22.5T352 896zm0-192h-64q-13 0-22.5-9.5T256 672v-64q0-13 9.5-22.5T288 576h64q13 0 22.5 9.5T384 608v64q0 13-9.5 22.5T352 704zM160 896H96q-13 0-22.5-9.5T64 864v-64q0-13 9.5-22.5T96 768h64q13 0 22.5 9.5T192 800v64q0 13-9.5 22.5T160 896zm0-192H96q-13 0-22.5-9.5T64 672v-64q0-13 9.5-22.5T96 576h64q13 0 22.5 9.5T192 608v64q0 13-9.5 22.5T160 704zm0-192H96q-13 0-22.5-9.5T64 480v-64q0-13 9.5-22.5T96 384h64q13 0 22.5 9.5T192 416v64q0 13-9.5 22.5T160 512zm0-192H96q-13 0-22.5-9.5T64 288v-64q0-13 9.5-22.5T96 192h64q13 0 22.5 9.5T192 224v64q0 13-9.5 22.5T160 320z" fill="#ffffff"/><rect x="0" y="0" width="1024" height="1024" fill="rgba(0, 0, 0, 0)" /></svg>