<svg xmlns="http://www.w3.org/2000/svg" xmlns:xlink="http://www.w3.org/1999/xlink" width="512" height="512" preserveAspectRatio="xMidYMid meet" viewBox="0 0 512 512" style="-ms-transform: rotate(360deg); -webkit-transform: rotate(360deg); transform: rotate(360deg);"><path fill="#ffffff" d="M96 146.025V16H64v130.025a64.009 64.009 0 0 0 0 123.95V496h32V269.975a64.009 64.009 0 0 0 0-123.95zM80 240a32 32 0 1 1 32-32a32.036 32.036 0 0 1-32 32z"/><path fill="#ffffff" d="M272 290.025V16h-32v274.025a64.009 64.009 0 0 0 0 123.95V496h32v-82.025a64.009 64.009 0 0 0 0-123.95zM256 384a32 32 0 1 1 32-32a32.036 32.036 0 0 1-32 32z"/><path fill="#ffffff" d="M448 82.025V16h-32v66.025a64.009 64.009 0 0 0 0 123.95V496h32V205.975a64.009 64.009 0 0 0 0-123.95zM432 176a32 32 0 1 1 32-32a32.036 32.036 0 0 1-32 32z"/><rect x="0" y="0" width="512" height="512" fill="rgba(0, 0, 0, 0)" /></svg>