<svg xmlns="http://www.w3.org/2000/svg" xmlns:xlink="http://www.w3.org/1999/xlink" width="256" height="256" preserveAspectRatio="xMidYMid meet" viewBox="0 0 256 256" style="-ms-transform: rotate(360deg); -webkit-transform: rotate(360deg); transform: rotate(360deg);"><path d="M216 74h-85.515l-27.9-27.899A13.907 13.907 0 0 0 92.688 42H40a14.016 14.016 0 0 0-14 14v144.615A13.4 13.4 0 0 0 39.385 214h177.504A13.126 13.126 0 0 0 230 200.889V88a14.016 14.016 0 0 0-14-14zM40 54h52.687a1.986 1.986 0 0 1 1.414.586L113.515 74H38V56a2.003 2.003 0 0 1 2-2zm178 146.889a1.113 1.113 0 0 1-1.111 1.111H39.385A1.403 1.403 0 0 1 38 200.615V86h178a2.003 2.003 0 0 1 2 2z" fill="#ffffff"/><rect x="0" y="0" width="256" height="256" fill="rgba(0, 0, 0, 0)" /></svg>