<svg xmlns="http://www.w3.org/2000/svg" xmlns:xlink="http://www.w3.org/1999/xlink" width="24" height="24" preserveAspectRatio="xMidYMid meet" viewBox="0 0 24 24" style="-ms-transform: rotate(360deg); -webkit-transform: rotate(360deg); transform: rotate(360deg);"><g fill="none"><path d="M19 16l.87-11.735a2.102 2.102 0 0 0-4.181-.433L15 9" stroke="#ffffff" stroke-width="2" stroke-linecap="round" stroke-linejoin="round"/><path d="M8 11l-.713-4.279a2.06 2.06 0 0 0-4.083.525L4 16" stroke="#ffffff" stroke-width="2" stroke-linecap="round" stroke-linejoin="round"/><path d="M12 13v-1.5a2 2 0 1 0-4 0V15" stroke="#ffffff" stroke-width="2" stroke-linecap="round" stroke-linejoin="round"/><path d="M16 13v-2a2 2 0 1 0-4 0v2" stroke="#ffffff" stroke-width="2" stroke-linecap="round" stroke-linejoin="round"/><path d="M19 16c-.536 4-3.358 6-7.5 6C7.358 22 4 20 4 16" stroke="#ffffff" stroke-width="2"/><path d="M13.692 17H11a2 2 0 1 1 0-4h4c2.21 0 4.5 2 3.5 5" stroke="#ffffff" stroke-width="2" stroke-linecap="round" stroke-linejoin="round"/></g><rect x="0" y="0" width="24" height="24" fill="rgba(0, 0, 0, 0)" /></svg>