<svg xmlns="http://www.w3.org/2000/svg" xmlns:xlink="http://www.w3.org/1999/xlink" width="24" height="24" preserveAspectRatio="xMidYMid meet" viewBox="0 0 24 24" style="-ms-transform: rotate(360deg); -webkit-transform: rotate(360deg); transform: rotate(360deg);"><path d="M4 2a1 1 0 0 0-1 1a1 1 0 0 0 1 1a3 3 0 0 1 3 3v8.5c0 3.6 2.9 6.5 6.5 6.5s6.5-2.9 6.5-6.5V13a1 1 0 0 0 1-1a1 1 0 0 0-1-1h-6a1 1 0 0 0-1 1a1 1 0 0 0 1 1v2a1 1 0 0 1-1 1a1 1 0 0 1-1-1v-4a1 1 0 0 0 1-1a1 1 0 0 0-1-1V8a1 1 0 0 0 1-1a1 1 0 0 0-1-1v-.5A3.5 3.5 0 0 0 8.5 2H4z" fill="#ffffff"/><rect x="0" y="0" width="24" height="24" fill="rgba(0, 0, 0, 0)" /></svg>