<svg xmlns="http://www.w3.org/2000/svg" xmlns:xlink="http://www.w3.org/1999/xlink" width="16" height="16" preserveAspectRatio="xMidYMid meet" viewBox="0 0 16 16" style="-ms-transform: rotate(360deg); -webkit-transform: rotate(360deg); transform: rotate(360deg);"><g fill="#ffffff"><path d="M12 1a1 1 0 0 1 1 1v12a1 1 0 0 1-1 1H4a1 1 0 0 1-1-1V2a1 1 0 0 1 1-1h8zM4 0a2 2 0 0 0-2 2v12a2 2 0 0 0 2 2h8a2 2 0 0 0 2-2V2a2 2 0 0 0-2-2H4z"/><path d="M8 4.75a.75.75 0 1 1 0-1.5a.75.75 0 0 1 0 1.5zM8 6a2 2 0 1 0 0-4a2 2 0 0 0 0 4zm0 3a1.5 1.5 0 1 0 0 3a1.5 1.5 0 0 0 0-3zm-3.5 1.5a3.5 3.5 0 1 1 7 0a3.5 3.5 0 0 1-7 0z"/></g><rect x="0" y="0" width="16" height="16" fill="rgba(0, 0, 0, 0)" /></svg>