<svg xmlns="http://www.w3.org/2000/svg" xmlns:xlink="http://www.w3.org/1999/xlink" width="24" height="24" preserveAspectRatio="xMidYMid meet" viewBox="0 0 24 24" style="-ms-transform: rotate(360deg); -webkit-transform: rotate(360deg); transform: rotate(360deg);"><g fill="none"><path d="M10 4.5h1v2h-1v-2z" fill="white"/><path d="M14 4.5h-1v2h1v-2z" fill="white"/><path fill-rule="evenodd" clip-rule="evenodd" d="M7 8.5v-7h10v7h2v11a3 3 0 0 1-3 3H8a3 3 0 0 1-3-3v-11h2zm2-5h6v5H9v-5zm8 7H7v9a1 1 0 0 0 1 1h8a1 1 0 0 0 1-1v-9z" fill="white"/></g><rect x="0" y="0" width="24" height="24" fill="rgba(0, 0, 0, 0)" /></svg>