<svg xmlns="http://www.w3.org/2000/svg" xmlns:xlink="http://www.w3.org/1999/xlink" width="16" height="16" preserveAspectRatio="xMidYMid meet" viewBox="0 0 16 16" style="-ms-transform: rotate(360deg); -webkit-transform: rotate(360deg); transform: rotate(360deg);"><g fill="none"><path d="M11 1a4 4 0 0 0-3.896 4.91l-5.05 5.235a1.986 1.986 0 0 0 2.842 2.774l5.006-5.072a4.003 4.003 0 0 0 5.062-4.382a.5.5 0 0 0-.849-.287L12 6.293L9.707 4l2.115-2.115a.5.5 0 0 0-.287-.85A4.033 4.033 0 0 0 11 1z" fill="#ffffff"/></g><rect x="0" y="0" width="16" height="16" fill="rgba(0, 0, 0, 0)" /></svg>